<?xml version="1.0" encoding="UTF-8" standalone="no"?>
<svg
   xmlns:dc="http://purl.org/dc/elements/1.1/"
   xmlns:cc="http://creativecommons.org/ns#"
   xmlns:rdf="http://www.w3.org/1999/02/22-rdf-syntax-ns#"
   xmlns:svg="http://www.w3.org/2000/svg"
   xmlns="http://www.w3.org/2000/svg"
   xmlns:sodipodi="http://sodipodi.sourceforge.net/DTD/sodipodi-0.dtd"
   xmlns:inkscape="http://www.inkscape.org/namespaces/inkscape"
   version="1.1"
   id="svg2"
   xml:space="preserve"
   viewBox="64 64 287.99948 288"
   sodipodi:docname="unity.svg"
   inkscape:version="1.0.1 (3bc2e813f5, 2020-09-07)"
   width="287.99948"
   height="288"><metadata
     id="metadata8"><rdf:RDF><cc:Work
         rdf:about=""><dc:format>image/svg+xml</dc:format><dc:type
           rdf:resource="http://purl.org/dc/dcmitype/StillImage" /><dc:title></dc:title></cc:Work></rdf:RDF></metadata><defs
     id="defs6" /><sodipodi:namedview
     pagecolor="#ffffff"
     bordercolor="#666666"
     borderopacity="1"
     objecttolerance="10"
     gridtolerance="10"
     guidetolerance="10"
     inkscape:pageopacity="0"
     inkscape:pageshadow="2"
     inkscape:window-width="1920"
     inkscape:window-height="1017"
     id="namedview4"
     inkscape:document-rotation="0"
     showgrid="false"
     inkscape:zoom="1.8782524"
     inkscape:cx="113.11774"
     inkscape:cy="166.98196"
     inkscape:window-x="-8"
     inkscape:window-y="-8"
     inkscape:window-maximized="1"
     inkscape:current-layer="g10"
     fit-margin-top="0"
     fit-margin-left="0"
     fit-margin-right="0"
     fit-margin-bottom="0" /><g
     id="g10"
     inkscape:groupmode="layer"
     inkscape:label="ink_ext_XXXXXX"
     transform="matrix(1.3333333,0,0,-1.3333333,63.999479,351.99999)"
     style="mix-blend-mode:normal"><g
       id="g12"
       transform="scale(0.1)"><path
         d="M 2160,1080 C 2160,483.531 1676.47,0 1080,0 483.531,0 0.00390625,483.531 0.00390625,1080 0.00390625,1676.47 483.531,2160 1080,2160 c 596.47,0 1080,-483.53 1080,-1080"
         style="fill:#ffffff;fill-opacity:1;fill-rule:nonzero;stroke:none"
         id="path14" /><path
         d="m 1604.3823,1902.4052 -671.85002,-175.073 -99.42966,-170.6494 -201.78604,1.4845 -491.77961,-478.258 491.77961,-478.18061 201.66636,1.46791 99.6675,-170.52832 671.73186,-175.07443 179.966,653.13845 -102.2534,169.177 102.2534,169.1499 z M 849.2738,1529.2334 1363.2007,1657.694 1068.196,1160.6971 H 478.08498 Z m 0,-898.57382 L 478.08498,999.2125 H 1068.196 l 295.0047,-496.99679 z m 657.7482,-47.65311 -295.1109,496.90283 295.1109,497.0878 142.5033,-497.0878 -142.5033,-496.90283"
         style="fill:#100f0d;fill-opacity:1;fill-rule:nonzero;stroke:none;stroke-width:1.51486"
         id="path16" /></g></g></svg>
